<?xml version="1.0" encoding="iso-8859-1"?>
<!-- Generator: Adobe Illustrator 19.1.0, SVG Export Plug-In . SVG Version: 6.00 Build 0)  -->
<svg version="1.1" id="Capa_1" xmlns="http://www.w3.org/2000/svg" xmlns:xlink="http://www.w3.org/1999/xlink" x="0px" y="0px"
	 viewBox="0 0 480.086 480.086" style="enable-background:new 0 0 480.086 480.086;" xml:space="preserve">
<g>
	<g id="XMLID_1764_">
		<path id="XMLID_1774_" d="M429.103,96.537c-14.1-29.8-44.2-48.7-77.1-48.7c-33.8,0-64.4,19.9-78.1,50.8
			c-9.5-4.9-21.2-7.8-33.8-7.9c-12.6,0-24.3,2.9-33.8,7.9c-13.7-30.9-44.3-50.8-78.1-50.8c-32.9,0-63.1,18.9-77.1,48.7
			c-55.8,118.1-51,220.7-51,220.7l0,0c0,10.7,0.8,21.4,2.9,31.9c11,53.9,60.6,89.9,114.9,82c42.6-6.2,70.8-31.4,84.6-72.3
			c5.6-16.6,4.9-33.9,4.8-51.1c0-3.9,1.3-6.6,4-9.2c8-7.7,18.3-11.6,28.7-11.6s20.8,3.9,28.7,11.6c2.7,2.6,4,5.3,4,9.2
			c0,17.2-0.7,34.5,4.8,51.1c13.7,40.9,42,66.1,84.6,72.3c54.3,8,103.9-28,114.9-82c2.2-10.6,2.9-21.2,2.9-31.9l0,0
			C480.103,317.237,484.903,214.637,429.103,96.537z M103.903,391.837c-35,0-63.4-28.4-63.4-63.4s28.4-63.4,63.4-63.4
			s63.4,28.4,63.4,63.4S138.903,391.837,103.903,391.837z M376.303,391.837c-35,0-63.4-28.4-63.4-63.4s28.4-63.4,63.4-63.4
			s63.4,28.4,63.4,63.4S411.303,391.837,376.303,391.837z"/>
		<path id="XMLID_1777_" d="M376.303,288.837c-21.8,0-39.6,17.8-39.6,39.6c0,5.2,4.2,9.5,9.5,9.5c5.2,0,9.5-4.2,9.5-9.5
			c0-11.4,9.3-20.7,20.7-20.7c5.2,0,9.5-4.2,9.5-9.5C385.803,293.137,381.603,288.837,376.303,288.837z"/>
		<path id="XMLID_1778_" d="M103.903,288.837c-21.8,0-39.6,17.8-39.6,39.6c0,5.2,4.2,9.5,9.5,9.5s9.5-4.2,9.5-9.5
			c0-11.4,9.3-20.7,20.7-20.7c5.2,0,9.5-4.2,9.5-9.5C113.303,293.137,109.103,288.837,103.903,288.837z"/>
	</g>
</g>
<g>
</g>
<g>
</g>
<g>
</g>
<g>
</g>
<g>
</g>
<g>
</g>
<g>
</g>
<g>
</g>
<g>
</g>
<g>
</g>
<g>
</g>
<g>
</g>
<g>
</g>
<g>
</g>
<g>
</g>
</svg>
