<?xml version="1.0" encoding="iso-8859-1"?>
<!-- Generator: Adobe Illustrator 18.1.1, SVG Export Plug-In . SVG Version: 6.00 Build 0)  -->
<svg version="1.1" id="Capa_1" xmlns="http://www.w3.org/2000/svg" xmlns:xlink="http://www.w3.org/1999/xlink" x="0px" y="0px"
	 viewBox="0 0 23.758 23.758" style="enable-background:new 0 0 23.758 23.758;" xml:space="preserve">
<g>
	<g>
		<path style="fill:#030104;" d="M23.456,10.616c-3.426-4.5-7.224-6.782-11.287-6.782c-6.828,0-11.681,6.527-11.885,6.807
			c-0.381,0.522-0.379,1.226,0.006,1.748c3.7,5.001,7.64,7.535,11.712,7.535c6.93,0,11.362-7.347,11.547-7.66
			C23.858,11.745,23.82,11.101,23.456,10.616z M12.003,16.97c-2.851,0-5.753-1.824-8.634-5.423c1.44-1.611,4.774-4.759,8.801-4.759
			c2.854,0,5.637,1.611,8.278,4.792C19.257,13.205,16.056,16.97,12.003,16.97z"/>
		<path style="fill:#030104;" d="M11.881,9.036c-1.578,0-2.86,1.276-2.86,2.843c0,1.568,1.283,2.843,2.86,2.843
			c1.575,0,2.856-1.275,2.856-2.843C14.737,10.312,13.456,9.036,11.881,9.036z M11.076,10.506l0.68,1.338l-1.411-0.841
			L11.076,10.506z"/>
	</g>
</g>
<g>
</g>
<g>
</g>
<g>
</g>
<g>
</g>
<g>
</g>
<g>
</g>
<g>
</g>
<g>
</g>
<g>
</g>
<g>
</g>
<g>
</g>
<g>
</g>
<g>
</g>
<g>
</g>
<g>
</g>
</svg>
