<?xml version="1.0" encoding="iso-8859-1"?>
<!-- Generator: Adobe Illustrator 19.0.0, SVG Export Plug-In . SVG Version: 6.00 Build 0)  -->
<svg version="1.1" id="Layer_1" xmlns="http://www.w3.org/2000/svg" xmlns:xlink="http://www.w3.org/1999/xlink" x="0px" y="0px"
	 viewBox="0 0 511.999 511.999" style="enable-background:new 0 0 511.999 511.999;" xml:space="preserve">
<g>
	<g>
		<path d="M438.072,300.545c-5.232-12.626-17.442-20.785-31.109-20.785h-19.125V166.011c0-4.65-1.886-8.86-4.934-11.908
			l-42.646-42.646c-3.047-3.049-7.258-4.934-11.908-4.934h-26.938V59.488c0-4.65-1.886-8.86-4.934-11.908L253.831,4.934
			C250.784,1.886,246.574,0,241.923,0h-98.819c-13.59,0-24.647,11.057-24.647,24.647v199.098c0,9.298,7.538,16.836,16.836,16.836
			h69.59v39.178h-99.847c-13.667,0-25.877,8.159-31.11,20.788c-5.229,12.627-2.364,27.031,7.3,36.694L209.98,465.995v29.167
			c0,9.298,7.538,16.836,16.836,16.836h58.366c9.298,0,16.836-7.538,16.836-16.836v-29.167l128.753-128.753
			C440.437,327.58,443.302,313.176,438.072,300.545z M311.513,140.196V158.2c0,13.59,11.057,24.647,24.647,24.647h18.005v96.912
			H238.556v-56.014v-83.549h46.019H311.513z M152.13,206.909V33.673h72.957v18.005c0,13.59,11.057,24.647,24.647,24.647h18.005
			v30.199h-38.208c-13.59,0-24.647,11.057-24.647,24.647v75.739H152.13z M273.278,447.117c-3.157,3.157-4.932,7.439-4.932,11.904
			v19.306h-24.693v-19.304c0-4.465-1.773-8.747-4.932-11.904L105.037,313.433H221.72h149.282h35.961L273.278,447.117z"/>
	</g>
</g>
<g>
</g>
<g>
</g>
<g>
</g>
<g>
</g>
<g>
</g>
<g>
</g>
<g>
</g>
<g>
</g>
<g>
</g>
<g>
</g>
<g>
</g>
<g>
</g>
<g>
</g>
<g>
</g>
<g>
</g>
</svg>
