<?xml version="1.0" encoding="iso-8859-1"?>
<!-- Generator: Adobe Illustrator 19.0.0, SVG Export Plug-In . SVG Version: 6.00 Build 0)  -->
<svg version="1.1" id="Layer_1" xmlns="http://www.w3.org/2000/svg" xmlns:xlink="http://www.w3.org/1999/xlink" x="0px" y="0px"
	 viewBox="0 0 512.001 512.001" style="enable-background:new 0 0 512.001 512.001;" xml:space="preserve">
<g>
	<g>
		<path d="M448.875,1.78l-59.314,29.657L330.247,1.78c-4.7-2.35-10.232-2.35-14.932,0L256,31.437L196.686,1.78
			c-4.7-2.35-10.232-2.35-14.932,0L122.44,31.437L63.125,1.78C52.05-3.758,38.964,4.304,38.964,16.713v445.202
			c0,6.324,3.573,12.104,9.229,14.933l66.78,33.39c4.7,2.35,10.232,2.35,14.932,0l59.314-29.657l59.314,29.657
			c4.7,2.35,10.232,2.35,14.932,0l59.314-29.657l59.314,29.657c4.7,2.35,10.232,2.35,14.932,0l66.78-33.39
			c5.656-2.828,9.229-8.609,9.229-14.933V16.713C473.036,4.33,459.974-3.768,448.875,1.78z M439.646,395.135v56.462l-50.085,25.043
			l-59.314-29.657c-2.35-1.175-4.908-1.762-7.466-1.762s-5.116,0.588-7.466,1.762L256,476.639l-59.314-29.657
			c-4.7-2.35-10.232-2.35-14.932,0l-59.314,29.657l-50.085-25.043v-56.462V43.726l42.619,21.31c4.7,2.35,10.232,2.35,14.932,0
			l59.314-29.657l59.314,29.657c4.7,2.35,10.232,2.35,14.932,0l59.314-29.657l59.314,29.657c4.7,2.35,10.232,2.35,14.932,0
			l42.619-21.31V395.135z"/>
	</g>
</g>
<g>
	<g>
		<path d="M211.48,100.189h-89.04c-9.22,0-16.695,7.475-16.695,16.695c0,9.22,7.475,16.695,16.695,16.695h89.04
			c9.22,0,16.695-7.475,16.695-16.695C228.175,107.664,220.7,100.189,211.48,100.189z"/>
	</g>
</g>
<g>
	<g>
		<path d="M211.48,166.969h-89.04c-9.22,0-16.695,7.475-16.695,16.695c0,9.22,7.475,16.695,16.695,16.695h89.04
			c9.22,0,16.695-7.475,16.695-16.695C228.175,174.444,220.7,166.969,211.48,166.969z"/>
	</g>
</g>
<g>
	<g>
		<path d="M211.48,233.749h-89.04c-9.22,0-16.695,7.475-16.695,16.695c0,9.22,7.475,16.695,16.695,16.695h89.04
			c9.22,0,16.695-7.475,16.695-16.695C228.175,241.224,220.7,233.749,211.48,233.749z"/>
	</g>
</g>
<g>
	<g>
		<path d="M211.48,300.53h-89.04c-9.22,0-16.695,7.475-16.695,16.695c0,9.22,7.475,16.695,16.695,16.695h89.04
			c9.22,0,16.695-7.475,16.695-16.695C228.175,308.004,220.7,300.53,211.48,300.53z"/>
	</g>
</g>
<g>
	<g>
		<path d="M122.44,378.44H89.05c-9.22,0-16.695,7.475-16.695,16.695c0,9.22,7.475,16.695,16.695,16.695h33.39
			c9.22,0,16.695-7.475,16.695-16.695C139.135,385.915,131.66,378.44,122.44,378.44z"/>
	</g>
</g>
<g>
	<g>
		<path d="M222.61,378.44h-33.39c-9.22,0-16.695,7.475-16.695,16.695c0,9.22,7.475,16.695,16.695,16.695h33.39
			c9.22,0,16.695-7.475,16.695-16.695C239.305,385.915,231.83,378.44,222.61,378.44z"/>
	</g>
</g>
<g>
	<g>
		<path d="M322.781,378.44h-33.39c-9.22,0-16.695,7.475-16.695,16.695c0,9.22,7.475,16.695,16.695,16.695h33.39
			c9.22,0,16.695-7.475,16.695-16.695C339.476,385.915,332.001,378.44,322.781,378.44z"/>
	</g>
</g>
<g>
	<g>
		<path d="M422.951,378.44h-33.39c-9.22,0-16.695,7.475-16.695,16.695c0,9.22,7.475,16.695,16.695,16.695h33.39
			c9.22,0,16.695-7.475,16.695-16.695C439.646,385.915,432.171,378.44,422.951,378.44z"/>
	</g>
</g>
<g>
	<g>
		<path d="M352.843,191.165c-17.515-9.258-35.627-18.832-35.627-29.761c0-15.343,12.482-27.825,27.825-27.825
			s27.825,12.482,27.825,27.825c0,9.22,7.475,16.695,16.695,16.695c9.22,0,16.695-7.475,16.695-16.695
			c0-27.966-18.858-51.594-44.52-58.882v-7.898c0-9.22-7.475-16.695-16.695-16.695c-9.22,0-16.695,7.475-16.695,16.695v7.898
			c-25.663,7.287-44.52,30.916-44.52,58.882c0,31.046,29.616,46.701,53.413,59.28c17.515,9.258,35.627,18.832,35.627,29.761
			c0,15.343-12.482,27.825-27.825,27.825s-27.825-12.482-27.825-27.825c0-9.22-7.475-16.695-16.695-16.695
			c-9.22,0-16.695,7.475-16.695,16.695c0,27.966,18.858,51.594,44.52,58.882v7.898c0,9.22,7.475,16.695,16.695,16.695
			c9.22,0,16.695-7.475,16.695-16.695v-7.898c25.663-7.287,44.52-30.916,44.52-58.882
			C406.256,219.398,376.64,203.744,352.843,191.165z"/>
	</g>
</g>
<g>
</g>
<g>
</g>
<g>
</g>
<g>
</g>
<g>
</g>
<g>
</g>
<g>
</g>
<g>
</g>
<g>
</g>
<g>
</g>
<g>
</g>
<g>
</g>
<g>
</g>
<g>
</g>
<g>
</g>
</svg>
