<?xml version="1.0" encoding="iso-8859-1"?>
<!-- Generator: Adobe Illustrator 19.0.0, SVG Export Plug-In . SVG Version: 6.00 Build 0)  -->
<svg version="1.1" id="Layer_1" xmlns="http://www.w3.org/2000/svg" xmlns:xlink="http://www.w3.org/1999/xlink" x="0px" y="0px"
	 viewBox="0 0 512 512" style="enable-background:new 0 0 512 512;" xml:space="preserve">
<g>
	<g>
		<g>
			<path d="M348.384,138.747c-9.803-6.536-23.049-3.886-29.584,5.917l-66.12,99.18l-35.295-35.295
				c-8.331-8.331-21.839-8.331-30.17,0c-8.331,8.331-8.331,21.839,0,30.17l53.696,53.696c9.519,9.519,25.368,7.95,32.835-3.251
				l80.555-120.832C360.836,158.527,358.187,145.282,348.384,138.747z"/>
			<path d="M448,0H149.44c-35.419,0-64.107,28.687-64.107,64.107V362.68l-63.995-0.014C9.554,362.664,0,372.216,0,384v66.197
				C0,484.337,27.663,512,61.803,512h300.864h6.613c3.961,0,7.368-0.829,10.226-2.253c27.178-7.391,47.161-32.222,47.161-61.747
				V170.667h64c11.782,0,21.333-9.551,21.333-21.333V64C512,28.645,483.355,0,448,0z M128,64.107c0-11.855,9.585-21.44,21.44-21.44
				h238.2c-0.201,0.569-0.383,1.147-0.568,1.723c-0.073,0.227-0.154,0.451-0.224,0.68c-0.288,0.932-0.555,1.874-0.801,2.823
				c-0.061,0.235-0.112,0.475-0.17,0.711c-0.178,0.72-0.348,1.443-0.501,2.173c-0.073,0.348-0.137,0.699-0.204,1.049
				c-0.121,0.631-0.236,1.263-0.339,1.9c-0.061,0.379-0.117,0.759-0.172,1.139c-0.09,0.628-0.169,1.259-0.24,1.893
				c-0.042,0.377-0.086,0.754-0.122,1.133c-0.065,0.683-0.113,1.37-0.156,2.059c-0.02,0.327-0.048,0.653-0.063,0.982
				C384.03,61.949,384,62.971,384,64v85.333V448c0,10.67-7.822,19.472-18.045,21.055h-1.618c-1.475,0.146-1.727,0.171-2.275,0.248
				c-11.508-0.322-20.729-9.716-20.729-21.303v-63.936V384c0-11.782-9.551-21.333-21.333-21.333H128V64.107z M61.803,469.333
				c-10.575,0-19.136-8.561-19.136-19.136v-44.859l256,0.055V448c0,1.029,0.03,2.051,0.078,3.068
				c0.016,0.328,0.043,0.652,0.063,0.979c0.043,0.69,0.092,1.379,0.157,2.063c0.036,0.378,0.079,0.754,0.121,1.13
				c0.071,0.634,0.151,1.265,0.24,1.894c0.054,0.381,0.111,0.761,0.172,1.139c0.103,0.638,0.218,1.271,0.34,1.902
				c0.067,0.349,0.131,0.699,0.203,1.046c0.154,0.733,0.325,1.458,0.503,2.182c0.058,0.234,0.108,0.47,0.168,0.702
				c0.246,0.951,0.514,1.893,0.802,2.826c0.07,0.226,0.149,0.447,0.222,0.672c0.186,0.578,0.369,1.158,0.571,1.73H61.803z
				 M469.333,128h-42.667V64c0-11.791,9.542-21.333,21.333-21.333S469.333,52.209,469.333,64V128z"/>
		</g>
	</g>
</g>
<g>
</g>
<g>
</g>
<g>
</g>
<g>
</g>
<g>
</g>
<g>
</g>
<g>
</g>
<g>
</g>
<g>
</g>
<g>
</g>
<g>
</g>
<g>
</g>
<g>
</g>
<g>
</g>
<g>
</g>
</svg>
