<?xml version="1.0" standalone="no"?>
<!DOCTYPE svg PUBLIC "-//W3C//DTD SVG 20010904//EN"
 "http://www.w3.org/TR/2001/REC-SVG-20010904/DTD/svg10.dtd">
<svg version="1.0" xmlns="http://www.w3.org/2000/svg"
 width="1200.000000pt" height="1200.000000pt" viewBox="0 0 1200.000000 1200.000000"
 preserveAspectRatio="xMidYMid meet">

<g transform="translate(0.000000,1200.000000) scale(0.100000,-0.100000)"
fill="#000000" stroke="none">
<path d="M0 6000 l0 -6000 6000 0 6000 0 0 6000 0 6000 -6000 0 -6000 0 0
-6000z m7500 1985 c0 -1786 2 -2064 14 -2059 18 7 86 -24 93 -43 9 -22 21 -15
25 15 l3 27 90 0 90 0 3 -264 c1 -175 6 -269 13 -278 6 -7 30 -13 53 -13 48 0
86 32 103 85 6 19 17 31 31 33 21 3 22 7 24 220 l3 217 88 3 87 3 0 -41 c0
-22 4 -40 8 -40 5 0 29 16 54 35 25 20 61 38 81 42 30 4 40 0 75 -31 64 -58
63 -128 -3 -158 -31 -14 -67 8 -85 51 -17 42 -60 43 -101 2 l-29 -29 0 -257 0
-256 -87 3 -88 3 -5 100 -5 100 -15 -48 c-20 -66 -82 -131 -144 -152 -85 -28
-171 2 -203 70 -20 43 -28 44 -48 5 -17 -33 -80 -80 -107 -80 -17 0 -18 -23
-18 -375 l0 -375 -1500 0 -1500 0 0 390 0 390 -26 -17 c-19 -12 -46 -17 -93
-17 -107 1 -170 44 -221 149 -19 39 -23 64 -23 148 -1 181 47 282 167 357 33
20 52 24 118 24 l78 0 0 2063 0 2063 1500 0 1500 0 0 -2065z m-4058 -1741 c10
-3 19 -20 23 -47 3 -23 16 -91 27 -152 18 -101 43 -251 69 -415 15 -96 20
-102 35 -40 22 89 52 230 64 300 6 36 19 101 29 145 11 44 24 108 31 143 l13
62 93 0 c52 0 94 -4 94 -9 0 -4 4 -64 9 -132 6 -68 13 -167 16 -219 4 -52 15
-212 25 -355 9 -143 16 -263 13 -267 -6 -11 -171 -10 -177 0 -3 5 -15 139 -26
298 -12 159 -23 290 -25 292 -5 6 -11 -20 -60 -258 -25 -124 -51 -250 -58
-280 l-12 -55 -88 -3 c-48 -1 -87 -1 -87 0 0 2 -7 41 -15 88 -8 47 -24 139
-35 205 -11 66 -27 156 -35 200 -8 44 -15 86 -15 94 0 8 -3 12 -6 8 -6 -6 -24
-106 -69 -392 -15 -93 -31 -178 -36 -187 -7 -13 -22 -18 -49 -18 -34 0 -40 3
-40 21 0 22 34 251 75 504 40 246 55 351 55 379 0 26 0 26 -27 9 -62 -38 -104
-87 -120 -142 -20 -69 -10 -183 18 -217 17 -21 8 -25 -32 -14 -64 18 -95 44
-109 93 -31 113 50 256 188 330 78 42 166 54 244 31z m5304 -55 c40 -24 54
-47 54 -86 -1 -53 -69 -110 -121 -99 -33 6 -46 17 -73 58 -38 59 13 140 93
147 7 0 29 -8 47 -20z m47 -474 c0 -119 -4 -222 -7 -230 -3 -8 -1 -15 4 -15 6
0 10 -14 10 -31 0 -52 15 -69 64 -69 49 0 80 25 92 75 4 17 12 33 18 37 66 45
32 -106 -40 -178 -87 -87 -240 -77 -295 19 -23 41 -24 49 -27 311 -2 148 -1
275 2 282 4 10 28 14 93 14 l88 0 -2 -215z m-1293 -1665 l0 -300 -1500 0
-1500 0 0 300 0 300 1500 0 1500 0 0 -300z m0 -675 l0 -225 -1500 0 -1500 0 0
225 0 225 1500 0 1500 0 0 -225z m0 -525 l0 -150 -1500 0 -1500 0 0 150 0 150
1500 0 1500 0 0 -150z m0 -375 l0 -75 -1500 0 -1500 0 0 75 0 75 1500 0 1500
0 0 -75z"/>
<path d="M4386 5825 c-38 -41 -51 -107 -51 -257 0 -123 2 -139 21 -165 29 -38
93 -45 123 -12 19 21 21 35 21 155 0 78 -4 135 -10 139 -5 3 -10 19 -10 35 0
16 5 32 10 35 18 11 12 73 -9 85 -33 17 -71 11 -95 -15z"/>
<path d="M7518 5843 c-17 -4 -18 -24 -18 -239 l0 -234 40 0 c34 0 43 5 65 37
25 37 25 41 25 225 0 182 -1 187 -22 202 -22 15 -54 19 -90 9z"/>
</g>
</svg>
